<?xml version="1.0" encoding="UTF-8" standalone="no"?>
<!-- Created with Inkscape (http://www.inkscape.org/) -->

<svg
   xmlns:dc="http://purl.org/dc/elements/1.1/"
   xmlns:cc="http://creativecommons.org/ns#"
   xmlns:rdf="http://www.w3.org/1999/02/22-rdf-syntax-ns#"
   xmlns:svg="http://www.w3.org/2000/svg"
   xmlns="http://www.w3.org/2000/svg"
   xmlns:sodipodi="http://sodipodi.sourceforge.net/DTD/sodipodi-0.dtd"
   xmlns:inkscape="http://www.inkscape.org/namespaces/inkscape"
   width="48"
   height="16"
   id="svg2"
   version="1.1"
   inkscape:version="0.48+devel r9736 custom"
   sodipodi:docname="statusicons.svg">
  <defs
     id="defs4" />
  <sodipodi:namedview
     id="base"
     pagecolor="#ffffff"
     bordercolor="#666666"
     borderopacity="1.0"
     inkscape:pageopacity="0.0"
     inkscape:pageshadow="2"
     inkscape:zoom="1"
     inkscape:cx="36.678932"
     inkscape:cy="5.9753126"
     inkscape:document-units="px"
     inkscape:current-layer="g31621"
     showgrid="false"
     borderlayer="true"
     inkscape:showpageshadow="false"
     inkscape:window-width="930"
     inkscape:window-height="681"
     inkscape:window-x="1892"
     inkscape:window-y="272"
     inkscape:window-maximized="0"
     inkscape:snap-nodes="false"
     inkscape:snap-bbox="true">
    <inkscape:grid
       type="xygrid"
       id="grid11370"
       empspacing="16"
       visible="true"
       enabled="true"
       snapvisiblegridlinesonly="true" />
  </sodipodi:namedview>
  <metadata
     id="metadata7">
    <rdf:RDF>
      <cc:Work
         rdf:about="">
        <dc:format>image/svg+xml</dc:format>
        <dc:type
           rdf:resource="http://purl.org/dc/dcmitype/StillImage" />
        <dc:title />
      </cc:Work>
    </rdf:RDF>
  </metadata>
  <g
     inkscape:label="Layer 1"
     inkscape:groupmode="layer"
     id="layer1"
     transform="translate(0,-1036.3622)">
    <path
       style="color:#000000;fill:#000000;fill-opacity:0;fill-rule:nonzero;stroke:#bebebe;stroke-width:2;stroke-linecap:square;stroke-linejoin:round;stroke-miterlimit:4;stroke-opacity:1;stroke-dasharray:none;stroke-dashoffset:0;marker:none;visibility:visible;display:inline;overflow:visible;enable-background:accumulate"
       d="m 20,1044.792 2.523934,2.5702 4.505505,-4.9329"
       id="path30130"
       inkscape:connector-curvature="0"
       sodipodi:nodetypes="ccc" />
    <g
       style="display:inline"
       inkscape:label="emblem-important"
       transform="translate(-346.1907,73.184099)"
       id="g35539">
      <g
         id="g35541"
         inkscape:label="emblem-important">
        <path
           style="fill:#bebebe;fill-opacity:1;stroke:none"
           d="m 70,823 c -3.86599,0 -7,3.13401 -7,7 0,3.86599 3.13401,7 7,7 3.86599,0 7,-3.13401 7,-7 0,-3.86599 -3.13401,-7 -7,-7 z m -0.09375,1.96875 A 1.0001,1.0001 0 0 1 71,826 l 0,5 a 1.0001,1.0001 0 1 1 -2,0 l 0,-5 a 1.0001,1.0001 0 0 1 0.78125,-1 1.0001,1.0001 0 0 1 0.125,-0.0313 z M 70,833 c 0.552285,0 1,0.44772 1,1 0,0.55228 -0.447715,1 -1,1 -0.552285,0 -1,-0.44772 -1,-1 0,-0.55228 0.447715,-1 1,-1 z"
           transform="translate(284.1907,141.17812)"
           id="path35543"
           inkscape:connector-curvature="0" />
        <rect
           y="963.1781"
           x="346.1907"
           height="16"
           width="16"
           id="rect35549"
           style="color:#bebebe;fill:none;stroke:none;stroke-width:2;marker:none;visibility:visible;display:inline;overflow:visible;enable-background:accumulate" />
      </g>
    </g>
    <g
       id="g31621"
       transform="translate(-314.1907,73.184099)"
       inkscape:label="emblem-important"
       style="display:inline">
      <g
         inkscape:label="emblem-important"
         id="g31623">
        <path
           style="fill:#bebebe;fill-opacity:1;stroke:none"
           d="m 40,1 c -3.86599,0 -7,3.13401 -7,7 0,3.86599 3.13401,7 7,7 3.86599,0 7,-3.13401 7,-7 0,-3.86599 -3.13401,-7 -7,-7 z m -4.03125,5.96875 8.03125,0 0,2.0625 -8.03125,0 0,-2.0625 z"
           transform="translate(314.1907,963.1781)"
           id="path31625"
           inkscape:connector-curvature="0" />
        <rect
           style="color:#bebebe;fill:none;stroke:none;stroke-width:2;marker:none;visibility:visible;display:inline;overflow:visible;enable-background:accumulate"
           id="rect31627"
           width="16"
           height="16"
           x="346.1907"
           y="963.1781" />
      </g>
    </g>
  </g>
</svg>
